<?xml version="1.0" encoding="UTF-8"?>
<svg id="Layer_1" data-name="Layer 1" xmlns="http://www.w3.org/2000/svg" viewBox="0 0 2052.72 544.53">
  <defs>
    <style>
      .cls-1 {
        fill: #fff;
        stroke-width: 0px;
      }
    </style>
  </defs>
  <path class="cls-1" d="M377.39,544.48c-30.07-.75-59.62-6.2-89.04-12.06-69.42-13.85-137.26-32.29-198.08-70.36-16.17-10.12-31.29-21.6-44.67-35.28-51.35-52.57-59.81-115.79-22.96-179.41,32.8-56.64,83.37-94.23,139.24-125.29,97.76-54.34,204.01-81.69,314-96.86,44.35-6.12,88.97-8.77,133.56-11.61,9.84-.62,18.09-3.04,26.47-8.44,14.45-9.33,31.75-5.58,42.02,7.47,9.99,12.73,9.48,29.53-1.29,41.55-10.66,11.91-27.63,15.25-40.94,5.66-9.41-6.78-18.85-8.55-29.72-8.34-98.75,1.9-196.51,11.85-291.9,38.47-76.46,21.34-149.43,50.64-212.51,100.45-18.93,14.95-36.08,31.77-50.66,51.09C1.41,307.09,9.78,378.73,72.76,431.6c47.4,39.82,103.77,61.02,161.92,78.4,38.64,11.54,78.42,18.11,118.14,24.77,8.55,1.42,17.01,3.34,25.52,5.04-.32,1.57-.65,3.14-.95,4.72v-.04Z"/>
  <path class="cls-1" d="M407.35,529.64c-18.29,6.05-31.92,1.34-45.19-.73-60.35-9.37-119.84-22.25-175.9-47.62-26.69-12.08-51.67-26.9-73.08-46.93-55.31-51.73-61.19-117.94-16.73-179.24,32.01-44.09,74.89-74.82,122.4-99.76,80.25-42.11,166.55-64.23,255.78-76.37,71.16-9.69,142.65-10.86,214.26-7.56,7.67.34,13.91-1.18,20.59-4.82,15.81-8.64,32.07-5.17,41.87,7.88,10.38,13.83,9.18,30.8-2.97,42.56-11.74,11.35-28.71,12.34-42.77,1.7-5.92-4.48-11.63-8.81-19.21-9.39-141.96-10.79-281.74-2.24-416.13,49.49-56.32,21.69-108.34,50.7-149.15,96.77-50.66,57.14-48.27,121.54,7.67,173.21,40.1,37.05,89.86,55.65,140.94,71.36,38.6,11.87,78.35,18.29,118.05,24.96,5.23.88,10.38,2.35,19.6,4.5h-.02Z"/>
  <path class="cls-1" d="M401.04,505.74c-28.11,4.63-55.24-1.08-82.23-7.04-52.72-11.65-103.99-27.18-147.25-61.53-51.56-40.94-59.94-103.02-20.68-156.04,35.77-48.33,85.31-78.44,139.39-101.49,76.37-32.54,156.84-48.01,239.37-54.02,17.01-1.25,33.81-2.05,49.43-12.43,13.1-8.7,27.31-3.49,37.48,8.4,9.78,11.42,10.79,24.62,2.89,37.33-7.78,12.49-21.73,21.73-33.99,14.09-28.71-17.9-58.48-10.47-87.9-8.64-86.73,5.45-170.6,23.13-248.25,63.97-29.87,15.7-57.12,34.91-78.89,61.38-38.4,46.67-32.82,102.24,14.88,139.87,40.92,32.26,88.76,49.06,138.77,60.48,25.52,5.82,51.3,10.49,76.95,15.7l.02-.02Z"/>
  <g>
    <path class="cls-1" d="M698.63,270.95c-60.93,0-96.73,39.24-96.73,96.38,0,2.39.09,4.74.22,7.06-3.94-22.25-18.16-36.92-43.59-43.55,23.76-8.27,36.14-24.79,36.14-47.86,0-31.68-22.03-55.07-60.59-59.9-12.04-1.38-18.24-1.38-30.65-1.38h-90.55v237.54h90.2c14.11,0,22.03,0,33.73-1.38,32.01-4.14,66.44-25.82,66.44-69.89,0-.86-.06-1.7-.09-2.54,6.87,47.21,41.18,78.63,95.43,78.63,60.59,0,96.75-39.59,96.75-96.75s-36.14-96.38-96.75-96.38h.02ZM466.95,263.74h31.32c5.51,0,11.7.34,16.52,1.03,14.11,2.07,23.41,9.65,23.41,25.48s-8.27,23.76-23.07,26.17c-4.82.69-10.32,1.03-15.83,1.03h-32.35v-53.72ZM520.3,416.57c-4.48.34-9.99.34-15.49.34h-37.86v-59.9h35.8c5.51,0,11.01,0,16.52.69,15.14,1.38,27.55,10.34,27.55,29.61,0,17.9-12.38,28.24-26.51,29.27v-.02ZM698.63,426.91c-25.82,0-41.31-21.34-41.31-59.55s15.49-59.21,41.31-59.21,40.97,21,40.97,59.21-15.49,59.55-40.97,59.55Z"/>
    <path class="cls-1" d="M915.52,270.95c-17.21,0-30.3,3.45-42.69,11.7l-15.14,22.03v-28.93h-54.06v183.48h54.06v-85.03c0-46.82,15.83-66.1,37.17-66.1s31.32,11.7,32.69,30.3c.69,9.3.69,18.59.69,25.48v95.37h54.04v-103.62c0-14.8-.34-24.79-1.72-34.09-4.14-32.01-26.51-50.61-65.07-50.61l.02.02Z"/>
    <polygon class="cls-1" points="1187.82 275.78 1123.79 275.78 1054.24 356.33 1054.24 206.23 1000.21 206.23 1000.21 459.26 1054.24 459.26 1054.24 404.53 1068.35 389.05 1121.72 459.26 1188.86 459.26 1108.28 360.46 1187.82 275.78"/>
    <path class="cls-1" d="M1271.48,270.95c-58.17,0-95.03,42-95.03,97.07,0,64.72,40.28,96.06,91.58,96.06,44.76,0,79.17-22.38,89.17-64.72h-53.37c-3.1,17.21-15.83,27.55-34.76,27.55-20.31,0-35.45-10.34-38.55-45.45h128.75c.69-6.55,1.03-12.38,1.03-17.21,0-48.89-30.3-93.3-88.82-93.3h0ZM1231.89,347.39c4.48-27.2,17.9-39.24,37.17-39.24s32.01,13.42,35.11,39.24h-72.3.02Z"/>
    <path class="cls-1" d="M1422.59,413.49c-.34-4.82-.34-8.96-.34-16.86v-190.37h-54.06v191.41c0,12.73,0,21.69.69,30.65,1.38,24.1,16.52,34.07,42.34,34.07,12.04,0,22.03-.69,32.35-1.72v-36.83c-16.17.69-19.97-2.07-21-10.32l.02-.02Z"/>
    <rect class="cls-1" x="1449.1" y="275.78" width="54.06" height="183.48"/>
    <path class="cls-1" d="M1475.96,204.85c-17.21,0-28.58,10.68-28.58,27.2s11.35,27.55,28.58,27.55,28.93-10.68,28.93-27.55-11.7-27.2-28.93-27.2Z"/>
    <path class="cls-1" d="M1635.34,270.95c-17.21,0-30.28,3.45-42.69,11.7l-15.14,22.03v-28.93h-54.06v183.48h54.06v-85.03c0-46.82,15.83-66.1,37.17-66.1s31.32,11.7,32.69,30.3c.69,9.3.69,18.59.69,25.48v95.37h54.06v-103.62c0-14.8-.34-24.79-1.72-34.09-4.14-32.01-26.51-50.61-65.07-50.61v.02Z"/>
    <polygon class="cls-1" points="1907.64 275.78 1843.61 275.78 1774.08 356.33 1774.08 206.23 1720.02 206.23 1720.02 459.26 1774.08 459.26 1774.08 404.53 1788.19 389.05 1841.56 459.26 1908.67 459.26 1828.12 360.46 1907.64 275.78"/>
    <path class="cls-1" d="M1994.57,346.18c-32.69-8.27-42.69-15.14-42.69-27.55,0-9.65,7.24-16.86,18.93-16.86,13.42,0,21.34,8.62,24.45,23.76h53.35c-4.48-33.38-29.96-58.17-74.37-58.17s-76.42,22.03-76.42,57.83c0,31.34,22.38,46.82,56.8,55.42,32.35,7.58,44.07,14.8,44.07,27.89,0,11.7-10.34,17.21-23.41,17.21-15.14,0-27.55-9.3-31.32-26.51h-53.37c4.82,41.31,37.52,61.28,84.34,61.28,43.03,0,77.79-17.9,77.79-56.11,0-34.42-22.72-49.24-58.17-58.17h.02Z"/>
  </g>
</svg>